<?xml version="1.0" ?><svg id="Outline" viewBox="0 0 512 512" xmlns="http://www.w3.org/2000/svg"><defs><style>.cls-1{fill:#262626;}</style></defs><path class="cls-1" d="M370.76,68.17H145.25a30.08,30.08,0,0,0-30,30.05V416a30,30,0,0,0,48.5,23.71L258,366.33l94.31,73.38A30,30,0,0,0,400.8,416V98.22A30.08,30.08,0,0,0,370.76,68.17ZM378.13,416a7.38,7.38,0,0,1-11.9,5.82L265,343A11.35,11.35,0,0,0,251,343L149.77,421.82A7.37,7.37,0,0,1,137.88,416V98.22a7.37,7.37,0,0,1,7.37-7.37H370.76a7.38,7.38,0,0,1,7.37,7.37Z"/></svg>