<svg version="1.1" id="Layer_1" xmlns="http://www.w3.org/2000/svg" xmlns:xlink="http://www.w3.org/1999/xlink" x="0px" y="0px" viewBox="0 0 24.7 11.593" style="enable-background:new 0 0 249.7 117.2;" xml:space="preserve" width="24.7" height="11.593"><g><path d="M7.874 3.502H4.56v1.879h2.602v0.9H4.56v2.77h-0.96V2.602h4.273z"/><path d="M10.416 4.066c0.435 0 0.821 0.099 1.157 0.307 0.336 0.198 0.594 0.495 0.781 0.87s0.287 0.831 0.287 1.365c0 0.524 -0.099 0.979 -0.287 1.365 -0.188 0.376 -0.445 0.673 -0.781 0.87s-0.722 0.307 -1.157 0.307 -0.821 -0.099 -1.157 -0.307c-0.336 -0.198 -0.594 -0.495 -0.791 -0.87 -0.188 -0.376 -0.287 -0.831 -0.287 -1.365 0 -0.524 0.099 -0.979 0.287 -1.365 0.188 -0.376 0.455 -0.673 0.791 -0.87 0.336 -0.208 0.722 -0.307 1.157 -0.307m0 0.821c-0.267 0 -0.495 0.069 -0.683 0.198S9.397 5.411 9.298 5.668s-0.148 0.564 -0.148 0.94c0 0.366 0.049 0.673 0.148 0.93s0.247 0.455 0.435 0.584 0.415 0.198 0.683 0.198 0.495 -0.069 0.683 -0.198 0.326 -0.326 0.435 -0.584c0.099 -0.257 0.148 -0.564 0.148 -0.93s-0.049 -0.683 -0.148 -0.94 -0.247 -0.445 -0.435 -0.584 -0.415 -0.198 -0.683 -0.198"/><path d="M14.778 1.968v5.708c0 0.237 0.04 0.406 0.119 0.495s0.208 0.138 0.386 0.138c0.109 0 0.198 -0.01 0.277 -0.02 0.079 -0.02 0.168 -0.049 0.287 -0.089l-0.109 0.781c-0.099 0.049 -0.218 0.089 -0.346 0.119s-0.267 0.04 -0.396 0.04c-0.396 0 -0.692 -0.109 -0.88 -0.336s-0.287 -0.574 -0.287 -1.039V1.968z"/><path d="M17.133 3.343c-0.208 0 -0.366 -0.059 -0.485 -0.168 -0.109 -0.119 -0.168 -0.277 -0.168 -0.485s0.059 -0.366 0.168 -0.475 0.267 -0.168 0.485 -0.168c0.208 0 0.356 0.059 0.475 0.168 0.109 0.109 0.168 0.267 0.168 0.475s-0.059 0.366 -0.168 0.485c-0.119 0.109 -0.277 0.168 -0.475 0.168m0.475 0.821v4.887h-0.96V4.164z"/><path d="M21.05 4.066c0.435 0 0.821 0.099 1.157 0.307 0.336 0.198 0.594 0.495 0.781 0.87s0.287 0.831 0.287 1.365c0 0.524 -0.099 0.979 -0.287 1.365 -0.188 0.376 -0.445 0.673 -0.781 0.87s-0.722 0.307 -1.157 0.307 -0.821 -0.099 -1.157 -0.307c-0.336 -0.198 -0.594 -0.495 -0.791 -0.87 -0.188 -0.376 -0.287 -0.831 -0.287 -1.365 0 -0.524 0.099 -0.979 0.287 -1.365 0.188 -0.376 0.455 -0.673 0.791 -0.87 0.336 -0.208 0.722 -0.307 1.157 -0.307m0 0.821c-0.267 0 -0.495 0.069 -0.683 0.198s-0.336 0.326 -0.435 0.584 -0.148 0.564 -0.148 0.94c0 0.366 0.049 0.673 0.148 0.93s0.247 0.455 0.435 0.584 0.415 0.198 0.683 0.198 0.495 -0.069 0.683 -0.198 0.326 -0.326 0.435 -0.584c0.099 -0.257 0.148 -0.564 0.148 -0.93s-0.049 -0.683 -0.148 -0.94 -0.247 -0.445 -0.435 -0.584 -0.415 -0.198 -0.683 -0.198"/></g></svg>