<?xml version="1.0" encoding="utf-8"?>
<!-- Generator: Adobe Illustrator 26.2.1, SVG Export Plug-In . SVG Version: 6.00 Build 0)  -->
<svg version="1.1" id="Layer_1" xmlns="http://www.w3.org/2000/svg" xmlns:xlink="http://www.w3.org/1999/xlink" x="0px" y="0px"
	 viewBox="0 0 249.7 117.2" style="enable-background:new 0 0 249.7 117.2;" xml:space="preserve">
<g>
	<path d="M79.6,35.4H46.1v19h26.3v9.1H46.1v28h-9.7V26.3h43.2V35.4z"/>
	<path d="M105.3,41.1c4.4,0,8.3,1,11.7,3.1c3.4,2,6,5,7.9,8.8s2.9,8.4,2.9,13.8c0,5.3-1,9.9-2.9,13.8c-1.9,3.8-4.5,6.8-7.9,8.8
		c-3.4,2-7.3,3.1-11.7,3.1c-4.4,0-8.3-1-11.7-3.1c-3.4-2-6-5-8-8.8c-1.9-3.8-2.9-8.4-2.9-13.8c0-5.3,1-9.9,2.9-13.8
		c1.9-3.8,4.6-6.8,8-8.8C97,42.1,100.9,41.1,105.3,41.1z M105.3,49.4c-2.7,0-5,0.7-6.9,2c-1.9,1.3-3.4,3.3-4.4,5.9
		c-1,2.6-1.5,5.7-1.5,9.5c0,3.7,0.5,6.8,1.5,9.4c1,2.6,2.5,4.6,4.4,5.9c1.9,1.3,4.2,2,6.9,2s5-0.7,6.9-2c1.9-1.3,3.3-3.3,4.4-5.9
		c1-2.6,1.5-5.7,1.5-9.4c0-3.7-0.5-6.9-1.5-9.5c-1-2.6-2.5-4.5-4.4-5.9C110.3,50,108,49.4,105.3,49.4z"/>
	<path d="M149.4,19.9v57.7c0,2.4,0.4,4.1,1.2,5c0.8,0.9,2.1,1.4,3.9,1.4c1.1,0,2-0.1,2.8-0.2c0.8-0.2,1.7-0.5,2.9-0.9l-1.1,7.9
		c-1,0.5-2.2,0.9-3.5,1.2c-1.3,0.3-2.7,0.4-4,0.4c-4,0-7-1.1-8.9-3.4c-1.9-2.3-2.9-5.8-2.9-10.5V19.9H149.4z"/>
	<path d="M173.2,33.8c-2.1,0-3.7-0.6-4.9-1.7c-1.1-1.2-1.7-2.8-1.7-4.9c0-2.1,0.6-3.7,1.7-4.8c1.1-1.1,2.7-1.7,4.9-1.7
		c2.1,0,3.6,0.6,4.8,1.7c1.1,1.1,1.7,2.7,1.7,4.8c0,2.1-0.6,3.7-1.7,4.9C176.8,33.2,175.2,33.8,173.2,33.8z M178,42.1v49.4h-9.7
		V42.1H178z"/>
	<path d="M212.8,41.1c4.4,0,8.3,1,11.7,3.1c3.4,2,6,5,7.9,8.8c1.9,3.8,2.9,8.4,2.9,13.8c0,5.3-1,9.9-2.9,13.8
		c-1.9,3.8-4.5,6.8-7.9,8.8c-3.4,2-7.3,3.1-11.7,3.1c-4.4,0-8.3-1-11.7-3.1c-3.4-2-6-5-8-8.8c-1.9-3.8-2.9-8.4-2.9-13.8
		c0-5.3,1-9.9,2.9-13.8c1.9-3.8,4.6-6.8,8-8.8C204.5,42.1,208.4,41.1,212.8,41.1z M212.8,49.4c-2.7,0-5,0.7-6.9,2
		c-1.9,1.3-3.4,3.3-4.4,5.9c-1,2.6-1.5,5.7-1.5,9.5c0,3.7,0.5,6.8,1.5,9.4c1,2.6,2.5,4.6,4.4,5.9c1.9,1.3,4.2,2,6.9,2s5-0.7,6.9-2
		c1.9-1.3,3.3-3.3,4.4-5.9c1-2.6,1.5-5.7,1.5-9.4c0-3.7-0.5-6.9-1.5-9.5c-1-2.6-2.5-4.5-4.4-5.9C217.8,50,215.5,49.4,212.8,49.4z"/>
</g>
</svg>
